<svg width="24" height="24" viewBox="0 0 24 24" fill="none" xmlns="http://www.w3.org/2000/svg">
<path d="M23.3027 11.3132L21.1014 10.7296L19.3531 6.16864C19.2142 5.80591 18.8661 5.56659 18.4777 5.56659H15.1952V2.71875C15.1952 2.20093 14.7755 1.78125 14.2577 1.78125H4.5C3.98218 1.78125 3.5625 2.20093 3.5625 2.71875C3.5625 3.23657 3.98218 3.65625 4.5 3.65625H13.3202V18.5625H8.83337C8.4505 17.5239 7.45111 16.7812 6.28125 16.7812C4.78217 16.7812 3.5625 18.0009 3.5625 19.5C3.5625 20.9991 4.78217 22.2188 6.28125 22.2188C7.45111 22.2188 8.4505 21.4761 8.83337 20.4375H16.9479C17.3307 21.4761 18.3301 22.2188 19.5 22.2188C20.6699 22.2188 21.6693 21.4761 22.0521 20.4375H23.0625C23.5803 20.4375 24 20.0178 24 19.5V12.2194C24 11.794 23.7138 11.4221 23.3027 11.3132ZM6.28125 20.3438C5.81598 20.3438 5.4375 19.9653 5.4375 19.5C5.4375 19.0347 5.81598 18.6562 6.28125 18.6562C6.74652 18.6562 7.125 19.0347 7.125 19.5C7.125 19.9653 6.74652 20.3438 6.28125 20.3438ZM15.1952 7.44159H17.833L19.5222 11.8484C19.63 12.1296 19.8662 12.3419 20.1573 12.4191L22.125 12.9406V18.5625H22.0521C21.6693 17.5239 20.6699 16.7812 19.5 16.7812C18.3301 16.7812 17.3307 17.5239 16.9479 18.5625H15.1952V7.44159ZM19.5 20.3438C19.0347 20.3438 18.6562 19.9653 18.6562 19.5C18.6562 19.0347 19.0347 18.6562 19.5 18.6562C19.9653 18.6562 20.3438 19.0347 20.3438 19.5C20.3438 19.9653 19.9653 20.3438 19.5 20.3438Z" fill="#0D0D0D"/>
<path d="M2.125 7.59375H4.50006C5.01788 7.59375 5.43756 7.17407 5.43756 6.65625C5.43756 6.13843 5.01788 5.71875 4.50006 5.71875H2.125C1.60718 5.71875 1.1875 6.13843 1.1875 6.65625C1.1875 7.17407 1.60736 7.59375 2.125 7.59375Z" fill="#0D0D0D"/>
<path d="M4.25006 10.2188C4.25006 9.70093 3.83038 9.28125 3.31256 9.28125H0.9375C0.419678 9.28125 0 9.70093 0 10.2188C0 10.7366 0.419678 11.1562 0.9375 11.1562H3.31256C3.8302 11.1562 4.25006 10.7366 4.25006 10.2188Z" fill="#0D0D0D"/>
<path d="M5.43756 13.7812C5.43756 13.2634 5.01788 12.8438 4.50006 12.8438H2.125C1.60718 12.8438 1.1875 13.2634 1.1875 13.7812C1.1875 14.2991 1.60718 14.7188 2.125 14.7188H4.50006C5.01788 14.7188 5.43756 14.2991 5.43756 13.7812Z" fill="#0D0D0D"/>
</svg>
