<svg width="24" height="24" viewBox="0 0 24 24" fill="none" xmlns="http://www.w3.org/2000/svg">
<path d="M12.0332 12.9379C14.5835 12.9379 16.6584 10.8631 16.6584 8.31282C16.6584 5.76252 14.5835 3.68757 12.0332 3.68757C9.48288 3.68757 7.40792 5.76252 7.40792 8.31282C7.40811 10.8631 9.48288 12.9379 12.0332 12.9379ZM12.0332 5.56275C13.5497 5.56275 14.7832 6.79633 14.7832 8.31282C14.7832 9.8293 13.5497 11.0629 12.0332 11.0629C10.5167 11.0629 9.28311 9.8293 9.28311 8.31282C9.28311 6.79633 10.5167 5.56275 12.0332 5.56275ZM22.145 20.5344L19.4358 12.0927C22.2448 6.61396 18.2604 0 12.0332 0C5.80282 0 1.82338 6.61744 4.63057 12.0927L1.92134 20.5344C1.68037 21.2857 2.42195 21.9815 3.15621 21.6938L6.04617 20.5611L7.50698 23.4826C7.85177 24.172 8.8389 24.1729 9.18405 23.4826L12.0332 17.7845L14.8823 23.4826C15.2269 24.172 16.2142 24.1729 16.5594 23.4826L18.02 20.5611L20.9101 21.6938C21.6448 21.9817 22.386 21.2853 22.145 20.5344ZM12.0332 1.875C15.5829 1.875 18.4708 4.76295 18.4708 8.31282C18.4708 11.8625 15.5829 14.7504 12.0332 14.7504C8.4833 14.7504 5.59536 11.8625 5.59536 8.31282C5.59536 4.76295 8.4833 1.875 12.0332 1.875ZM8.34561 20.9669L7.34036 18.9564C7.12338 18.5226 6.61123 18.3258 6.15969 18.5028L4.30996 19.2276L5.98483 14.0091C7.186 15.2838 8.78415 16.1803 10.5799 16.4982L8.34561 20.9669ZM17.9067 18.5028C17.4551 18.3258 16.943 18.5226 16.726 18.9564L15.7207 20.9669L13.4865 16.4982C15.2822 16.1803 16.8804 15.2838 18.0815 14.0092L19.7564 19.2277L17.9067 18.5028Z" fill="#0D0D0D"/>
<path d="M12.033 12.9378C14.5833 12.9378 16.6582 10.863 16.6582 8.31275C16.6582 5.76245 14.5833 3.6875 12.033 3.6875C9.48267 3.6875 7.40771 5.76245 7.40771 8.31275C7.4079 10.863 9.48267 12.9378 12.033 12.9378ZM12.033 5.56269C13.5494 5.56269 14.783 6.79627 14.783 8.31275C14.783 9.82923 13.5494 11.0628 12.033 11.0628C10.5165 11.0628 9.2829 9.82923 9.2829 8.31275C9.2829 6.79627 10.5165 5.56269 12.033 5.56269Z" fill="#0D0D0D"/>
</svg>
