<svg width="17" height="16" viewBox="0 0 17 16" fill="none" xmlns="http://www.w3.org/2000/svg">
<g clip-path="url(#clip0_54_9)">
<path d="M0 1C0 0.447715 0.447715 0 1 0H16C16.5523 0 17 0.447715 17 1C17 1.55228 16.5523 2 16 2H1C0.447715 2 0 1.55228 0 1Z" fill="#222222"/>
<path d="M0 8C0 7.44772 0.447715 7 1 7H16C16.5523 7 17 7.44772 17 8C17 8.55228 16.5523 9 16 9H1C0.447715 9 0 8.55228 0 8Z" fill="#222222"/>
<path d="M0 15C0 14.4477 0.447715 14 1 14H16C16.5523 14 17 14.4477 17 15C17 15.5523 16.5523 16 16 16H1C0.447715 16 0 15.5523 0 15Z" fill="#222222"/>
</g>
<defs>
<clipPath id="clip0_54_9">
<rect width="17" height="16" fill="white"/>
</clipPath>
</defs>
</svg>
