<svg width="20" height="20" viewBox="0 0 20 20" fill="none" xmlns="http://www.w3.org/2000/svg">
<path d="M18.0913 16.9083L15.733 14.5583C17.0115 12.9789 17.6352 10.9691 17.4754 8.94333C17.3157 6.91759 16.3847 5.03037 14.8745 3.67082C13.3642 2.31128 11.3899 1.58307 9.35857 1.63637C7.32723 1.68966 5.39379 2.52039 3.95692 3.95726C2.52006 5.39412 1.68933 7.32757 1.63603 9.3589C1.58274 11.3902 2.31094 13.3646 3.67049 14.8748C5.03003 16.385 6.91725 17.316 8.943 17.4758C10.9687 17.6355 12.9786 17.0118 14.558 15.7333L16.908 18.0917C16.9855 18.1698 17.0776 18.2318 17.1792 18.2741C17.2807 18.3164 17.3897 18.3382 17.4997 18.3382C17.6097 18.3382 17.7186 18.3164 17.8202 18.2741C17.9217 18.2318 18.0139 18.1698 18.0913 18.0917C18.1694 18.0142 18.2314 17.922 18.2737 17.8205C18.3161 17.7189 18.3378 17.61 18.3378 17.5C18.3378 17.39 18.3161 17.2811 18.2737 17.1795C18.2314 17.078 18.1694 16.9858 18.0913 16.9083ZM3.333 9.58334C3.333 8.3472 3.69956 7.13883 4.38632 6.11102C5.07308 5.08322 6.04919 4.28214 7.19123 3.80909C8.33327 3.33604 9.58994 3.21227 10.8023 3.45343C12.0147 3.69459 13.1283 4.28984 14.0024 5.16392C14.8765 6.038 15.4718 7.15164 15.7129 8.36402C15.9541 9.5764 15.8303 10.8331 15.3572 11.9751C14.8842 13.1171 14.0831 14.0933 13.0553 14.78C12.0275 15.4668 10.8191 15.8333 9.583 15.8333C7.9254 15.8333 6.33569 15.1749 5.16358 14.0028C3.99148 12.8307 3.333 11.2409 3.333 9.58334Z" fill="black"/>
</svg>
