<svg width="18" height="18" viewBox="0 0 18 18" fill="none" xmlns="http://www.w3.org/2000/svg">
<g clip-path="url(#clip0_56_116)">
<path opacity="0.4" d="M0.645029 9.80512C0.642838 8.33857 1.03975 6.89906 1.79323 5.64087C2.47246 6.91692 3.47061 7.99528 4.69047 8.77091C5.91032 9.54654 7.31027 9.99299 8.75395 10.0668C10.1976 10.1405 11.6358 9.83914 12.9284 9.1919C14.2209 8.54467 15.3238 7.57368 16.1296 6.37352C16.6307 7.44803 16.8896 8.61952 16.8879 9.80512C16.8879 14.2904 13.2521 17.9262 8.76682 17.9262C4.28159 17.9262 0.645029 14.2904 0.645029 9.80512Z" fill="#FF5050"/>
<path d="M9.0001 18C7.22027 17.9997 5.48048 17.4718 4.00069 16.4828C2.5209 15.4939 1.36755 14.0883 0.686477 12.444C0.00540025 10.7996 -0.172827 8.99022 0.174327 7.24458C0.521481 5.49893 1.37843 3.8954 2.63683 2.63673C4.09994 1.17364 6.02242 0.259242 8.08069 0.047428C10.139 -0.164386 12.2074 0.339318 13.9378 1.47377C14.0367 1.53603 14.1221 1.61739 14.1892 1.71307C14.2563 1.80876 14.3036 1.91686 14.3283 2.03105C14.3531 2.14523 14.3549 2.26321 14.3335 2.37809C14.3122 2.49297 14.2681 2.60244 14.204 2.70009C14.1398 2.79775 14.0568 2.88163 13.9599 2.94683C13.8629 3.01203 13.7539 3.05724 13.6393 3.07982C13.5246 3.1024 13.4066 3.1019 13.2922 3.07833C13.1778 3.05477 13.0692 3.00862 12.9728 2.94259C11.7931 2.16726 10.4118 1.7553 9.0001 1.75783C5.00776 1.75783 1.75792 5.00662 1.75792 9.00001C1.75792 12.9934 5.00671 16.2422 9.0001 16.2422C12.9935 16.2422 16.2423 12.9934 16.2423 9.00001C16.2429 8.29434 16.1405 7.59236 15.9382 6.9163C15.905 6.80573 15.8939 6.68971 15.9056 6.57486C15.9173 6.46001 15.9515 6.34858 16.0062 6.24694C16.1167 6.04167 16.3043 5.88871 16.5276 5.82171C16.7509 5.75472 16.9917 5.77918 17.1969 5.88971C17.4022 6.00025 17.5552 6.1878 17.6222 6.41111C18.0253 7.75525 18.1087 9.17504 17.8656 10.5571C17.6225 11.9392 17.0596 13.2453 16.222 14.3712C15.3843 15.4971 14.2951 16.4116 13.0412 17.0416C11.7873 17.6717 10.4034 17.9999 9.0001 18Z" fill="#0D0D0D"/>
<path d="M7.68295 13.3003C7.52039 13.3007 7.35937 13.2689 7.20922 13.2066C7.05908 13.1443 6.92279 13.0529 6.80826 12.9375L3.6681 9.79804C3.58648 9.71642 3.52173 9.61951 3.47756 9.51287C3.43338 9.40622 3.41064 9.29191 3.41064 9.17648C3.41064 8.94335 3.50326 8.71976 3.6681 8.55492C3.83295 8.39007 4.05654 8.29746 4.28967 8.29746C4.5228 8.29746 4.74638 8.39007 4.91123 8.55492L7.68295 11.3266L13.0907 5.91749C13.2555 5.75265 13.4791 5.66003 13.7122 5.66003C13.9454 5.66003 14.169 5.75265 14.3338 5.91749C14.4987 6.08234 14.5913 6.30593 14.5913 6.53906C14.5913 6.77219 14.4987 6.99577 14.3338 7.16062L8.55798 12.9375C8.44333 13.0528 8.30697 13.1442 8.15678 13.2065C8.00658 13.2688 7.84554 13.3006 7.68295 13.3003Z" fill="#0D0D0D"/>
</g>
<defs>
<clipPath id="clip0_56_116">
<rect width="18" height="18" fill="white"/>
</clipPath>
</defs>
</svg>
